<svg xmlns="http://www.w3.org/2000/svg" xmlns:xlink="http://www.w3.org/1999/xlink" x="0px" y="0px"
	 viewBox="0 0 166.93 66.49" style="enable-background:new 0 0 166.93 66.49;" xml:space="preserve">
<g>
	<path d="M15.23,23.84c4.2-3.35,6.94-6.08,8.21-8.21c0.37-0.58,0.56-1.06,0.56-1.43c0-0.48-0.48-0.72-1.44-0.72H3.03V8.13h9.25
		c1.17,0,1.75-0.58,1.75-1.75V0.4h6.46v5.98c0,1.17,0.58,1.75,1.75,1.75h4.07c1.91,0,3.29,0.29,4.15,0.88
		c0.85,0.59,1.28,1.49,1.28,2.71c0,0.53-0.08,1.12-0.24,1.75c-0.27,1.28-0.96,2.78-2.07,4.5C28.3,19.7,27,21.31,25.51,22.8
		c-0.32,0.32-0.48,0.59-0.48,0.8c0,0.27,0.24,0.61,0.72,1.04c2.82,2.5,6.72,5.31,11.72,8.45l-3.19,4.86
		c-4.36-2.66-8.93-5.82-13.71-9.49c-0.37-0.32-0.67-0.48-0.88-0.48c-0.21,0-0.61,0.24-1.2,0.72c-1.91,1.59-4.23,3.35-6.94,5.26
		s-5.37,3.61-7.97,5.1L0,34.44C5.95,30.72,11.03,27.18,15.23,23.84z M0,50.3h13.07c1.17,0,1.75-0.58,1.75-1.75v-10.6h6.62v10.6
		c0,1.17,0.58,1.75,1.75,1.75h13.87v5.42H0V50.3z M40.82,3.59h6.7v54.37h-6.7V3.59z"/>
	<path d="M70.91,29.66c3.91-5.79,6.5-11.03,7.77-15.71c0.11-0.64,0.16-1.04,0.16-1.2c0-0.48-0.13-0.78-0.4-0.92
		c-0.27-0.13-0.69-0.2-1.28-0.2H59.39v-5.5h21.29c1.91,0,3.29,0.31,4.15,0.92c0.85,0.61,1.28,1.63,1.28,3.07
		c0,0.59-0.08,1.28-0.24,2.07c-0.37,2.13-1.06,4.49-2.07,7.1c-1.01,2.6-2.26,5.21-3.75,7.81c-0.32,0.64-0.48,1.14-0.48,1.51
		c0,0.43,0.11,0.84,0.32,1.24c0.21,0.4,0.35,0.62,0.4,0.68c2.82,4.36,7.07,9.25,12.76,14.67l-3.99,4.23
		c-2.07-1.97-4.24-4.21-6.5-6.74c-2.26-2.52-4.27-4.98-6.02-7.37c-0.48-0.64-0.88-0.96-1.2-0.96c-0.37,0-0.8,0.35-1.28,1.04
		c-4.62,6.22-9.04,11.21-13.23,14.99l-4.54-3.75C62.13,41.11,67,35.45,70.91,29.66z M99.33,3.99h6.7v50.7h-6.7V3.99z"/>
	<path d="M125.2,31.49c-2.52-1.44-4.52-3.35-5.98-5.74c-1.46-2.39-2.19-5.02-2.19-7.89c0-2.82,0.73-5.43,2.19-7.85
		c1.46-2.42,3.45-4.33,5.98-5.74c2.52-1.41,5.35-2.11,8.49-2.11c3.08,0,5.89,0.71,8.41,2.11c2.52,1.41,4.52,3.32,5.98,5.74
		c1.46,2.42,2.19,5.04,2.19,7.85c0,2.87-0.73,5.5-2.19,7.89s-3.46,4.31-5.98,5.74c-2.53,1.44-5.33,2.15-8.41,2.15
		C130.55,33.64,127.72,32.92,125.2,31.49z M126.48,25.23c1.83,1.99,4.24,2.99,7.21,2.99c2.92,0,5.3-1,7.14-2.99
		c1.83-1.99,2.75-4.45,2.75-7.37c0-2.92-0.92-5.37-2.75-7.33c-1.83-1.97-4.21-2.95-7.14-2.95c-2.98,0-5.38,0.98-7.21,2.95
		c-1.83,1.97-2.75,4.41-2.75,7.33C123.73,20.78,124.64,23.24,126.48,25.23z M127.63,44.8h6.7v13.63c0,0.85,0.22,1.5,0.68,1.95
		c0.45,0.45,1.1,0.68,1.95,0.68h29.98v5.42h-32.61c-2.29,0-3.97-0.53-5.06-1.59c-1.09-1.06-1.63-2.74-1.63-5.02V44.8z M151.39,22.64
		h6.38c1.17,0,1.75-0.58,1.75-1.75v-6.14c0-1.17-0.59-1.75-1.75-1.75h-6.38V7.73h6.38c1.17,0,1.75-0.58,1.75-1.75V0h6.7v47.27h-6.7
		V29.66c0-1.17-0.59-1.75-1.75-1.75h-6.38V22.64z"/>
</g>
</svg>
