<svg xmlns="http://www.w3.org/2000/svg" xmlns:xlink="http://www.w3.org/1999/xlink" x="0px" y="0px"
	 viewBox="0 0 219.99 50.1" style="enable-background:new 0 0 219.99 50.1;" xml:space="preserve">
<g>
	<path d="M0,38.63h38.99v4.14H0V38.63z M4.45,23.19h4.33c0.88,0,1.32-0.44,1.32-1.32V8.35c0-0.88-0.44-1.32-1.32-1.32H4.57V3h29.86
		v4.02h-4.21c-0.88,0-1.32,0.44-1.32,1.32v13.52c0,0.88,0.44,1.32,1.32,1.32h4.33v4.02H4.45V23.19z M16.16,23.19h6.67
		c0.88,0,1.32-0.44,1.32-1.32V8.35c0-0.88-0.44-1.32-1.32-1.32h-6.67c-0.88,0-1.32,0.44-1.32,1.32v13.52
		C14.84,22.75,15.28,23.19,16.16,23.19z"/>
	<path d="M44.39,29.14h15.68c0.88,0,1.32-0.44,1.32-1.32v-4.33h4.99v4.33c0,0.88,0.44,1.32,1.32,1.32h15.68v4.09H44.39V29.14z
		 M51.33,20.36c-0.78-0.76-1.17-2-1.17-3.72V8.77h21.03c0.44,0,0.77-0.07,0.99-0.21c0.22-0.14,0.33-0.41,0.33-0.81V5.17
		c0-0.4-0.1-0.67-0.3-0.81c-0.2-0.14-0.54-0.21-1.02-0.21H50.04V0h27.45v12.62H56.53c-0.44,0-0.77,0.07-0.99,0.21
		c-0.22,0.14-0.33,0.41-0.33,0.81v2.22c0,0.6,0.14,1.01,0.42,1.23c0.28,0.22,0.76,0.33,1.44,0.33h20.85v4.08H55.09
		C53.36,21.51,52.11,21.13,51.33,20.36z M50.64,37.19h5.05v6.85c0,0.64,0.17,1.13,0.51,1.47c0.34,0.34,0.83,0.51,1.47,0.51h20.12
		v4.08H55.69c-1.72,0-2.99-0.4-3.81-1.2c-0.82-0.8-1.23-2.06-1.23-3.79V37.19z"/>
	<path d="M88.79,39.11h38.99v4.14H88.79V39.11z M95.79,27.57c-0.82-0.8-1.23-2.06-1.23-3.78V2.94h27.39v4.08h-21.03
		c-0.88,0-1.32,0.44-1.32,1.32v4.21c0,0.88,0.44,1.32,1.32,1.32h20.61v3.72h-20.61c-0.88,0-1.32,0.44-1.32,1.32v3.78
		c0,0.64,0.17,1.13,0.51,1.47c0.34,0.34,0.83,0.51,1.47,0.51h20.84v4.08H99.6C97.88,28.77,96.61,28.38,95.79,27.57z"/>
	<path d="M135.04,7.51c0.84-1.8,2-3.19,3.48-4.18c1.48-0.98,3.14-1.47,4.99-1.47c1.8,0,3.44,0.49,4.93,1.47
		c1.48,0.98,2.64,2.37,3.48,4.18s1.26,3.87,1.26,6.19c0,2.32-0.42,4.39-1.26,6.19s-2,3.19-3.48,4.18c-1.48,0.98-3.12,1.47-4.93,1.47
		c-1.84,0-3.5-0.49-4.99-1.47c-1.48-0.98-2.64-2.37-3.48-4.18s-1.26-3.86-1.26-6.19C133.78,11.37,134.2,9.31,135.04,7.51z
		 M140.18,19.31c0.9,1.42,2.01,2.13,3.33,2.13c1.28,0,2.37-0.72,3.27-2.16c0.9-1.44,1.35-3.3,1.35-5.59s-0.45-4.15-1.35-5.59
		c-0.9-1.44-1.99-2.16-3.27-2.16c-1.32,0-2.43,0.71-3.33,2.13c-0.9,1.42-1.35,3.29-1.35,5.62
		C138.83,16.02,139.28,17.89,140.18,19.31z M143.6,48.9c-0.82-0.8-1.23-2.06-1.23-3.79V33.76h5.05v10.27c0,0.64,0.17,1.13,0.51,1.47
		c0.34,0.34,0.83,0.51,1.47,0.51h24.45v4.08h-26.43C145.7,50.1,144.42,49.7,143.6,48.9z M154.69,11.47h2.64
		c0.88,0,1.32-0.44,1.32-1.32V0.42h4.99v34.9h-4.99V16.88c0-0.88-0.44-1.32-1.32-1.32h-2.64V11.47z M168.32,0h5.05v35.8h-5.05V0z"/>
	<path d="M181,38.63h38.99v4.14H181V38.63z M187.97,25.98c-0.8-0.82-1.2-2.09-1.2-3.81V3.12h27.51v4.08h-21.21
		c-0.88,0-1.32,0.44-1.32,1.32v12.62c0,0.64,0.17,1.13,0.51,1.47c0.34,0.34,0.83,0.51,1.47,0.51h21.03v4.08h-23.01
		C190.03,27.21,188.77,26.8,187.97,25.98z"/>
</g>
</svg>
